<svg xmlns="http://www.w3.org/2000/svg" xmlns:xlink="http://www.w3.org/1999/xlink" viewBox="0 0 138 189.45"><defs><style>.cls-1{fill:none;}.cls-2{clip-path:url(#clip-path);}.cls-3{fill:#e6b755;}.cls-4{fill:#dd9b32;}.cls-4,.cls-6{fill-rule:evenodd;}.cls-5{fill:#e6b664;}.cls-6{fill:#dc9932;}.cls-7{fill:#d27b30;}.cls-8{fill:#f3d96b;}.cls-9{fill:#eac14a;}.cls-10{fill:#e0a43e;}</style><clipPath id="clip-path" transform="translate(-48.67 -23.13)"><rect class="cls-1" width="235.25" height="235.25"/></clipPath></defs><title>Recurso 2</title><g id="Capa_2" data-name="Capa 2"><g id="Capa_1-2" data-name="Capa 1"><g class="cls-2"><path class="cls-3" d="M48.67,176.05l1.15-1.61L104.07,71.5l.12-1.09L80.27,25.48A4.44,4.44,0,0,0,72,26.89Z" transform="translate(-48.67 -23.13)"/><path id="a" class="cls-4" d="M49.35,174.82l.87-1.69L103.9,71.26,80.05,26.16a4,4,0,0,0-7.67,1.39Z" transform="translate(-48.67 -23.13)"/><path class="cls-5" d="M121.62,104.39l17.81-18.24-17.81-34a4.59,4.59,0,0,0-8.09,0L104,70.29v1.55l17.61,32.55Z" transform="translate(-48.67 -23.13)"/><path id="c" class="cls-6" d="M121.3,103.63,138.62,85.9l-17.32-33c-1.64-3.13-5.63-3.46-7.26-.32L104.47,71l-.28.95Z" transform="translate(-48.67 -23.13)"/><path class="cls-7" d="M48.67,176.05l.52-.53,1.89-.77,69.42-69.16.88-2.39-17.32-33Z" transform="translate(-48.67 -23.13)"/><path class="cls-8" d="M123.85,210.93l62.82-35L168.73,65.39A4.29,4.29,0,0,0,161.46,63l-112.79,113,62.47,34.87a13,13,0,0,0,12.71,0" transform="translate(-48.67 -23.13)"/><path class="cls-9" d="M186.11,175.59,168.31,65.93c-.56-3.43-4.09-4.85-6.54-2.39L49.37,175.83l61.78,34.53a13,13,0,0,0,12.61,0l62.35-34.78Z" transform="translate(-48.67 -23.13)"/><path class="cls-10" d="M123.85,209.89a13,13,0,0,1-12.71,0l-62-34.38-.51.54,62.47,34.87a13,13,0,0,0,12.71,0l62.82-35-.15-.95-62.67,34.95Z" transform="translate(-48.67 -23.13)"/></g></g></g></svg>